<svg width="24" height="24" viewBox="0 0 24 24" fill="none" xmlns="http://www.w3.org/2000/svg">
<path d="M19.5596 3.00161H4.54121C4.34764 2.99255 4.15417 3.02174 3.97189 3.08753C3.78961 3.15333 3.6221 3.25442 3.47894 3.38503C3.33578 3.51564 3.21979 3.6732 3.13761 3.84869C3.05543 4.02418 3.00866 4.21415 3 4.40774V19.4589C3.01134 19.864 3.17736 20.2495 3.46397 20.5361C3.75058 20.8227 4.13604 20.9887 4.54121 21H19.5596C19.9535 20.9825 20.3249 20.8113 20.594 20.5232C20.8632 20.2351 21.0088 19.853 20.9996 19.4589V4.40774C21.0028 4.21932 20.9675 4.03223 20.8958 3.85795C20.8242 3.68366 20.7177 3.52585 20.5828 3.39419C20.448 3.26253 20.2877 3.15979 20.1118 3.09229C19.9358 3.02478 19.7479 2.99393 19.5596 3.00161ZM8.62487 18.0078H6.00368V9.98724H8.62487V18.0078ZM7.37615 8.77235C7.19324 8.77872 7.01098 8.7472 6.84084 8.67978C6.67069 8.61235 6.51633 8.51047 6.38744 8.38053C6.25855 8.2506 6.15793 8.09542 6.09189 7.92474C6.02585 7.75406 5.99582 7.57156 6.00368 7.38872C5.99559 7.20391 6.02623 7.01944 6.09362 6.84716C6.16102 6.67487 6.26368 6.51858 6.39503 6.3883C6.52637 6.25802 6.6835 6.15663 6.85634 6.09064C7.02917 6.02465 7.21389 5.99551 7.39865 6.0051C7.58156 5.99872 7.76381 6.03024 7.93396 6.09767C8.10411 6.16509 8.25847 6.26698 8.38736 6.39691C8.51625 6.52684 8.61687 6.68203 8.68291 6.85271C8.74895 7.02339 8.77898 7.20588 8.77112 7.38872C8.77921 7.57354 8.74857 7.758 8.68118 7.93029C8.61378 8.10257 8.51112 8.25886 8.37977 8.38914C8.24843 8.51942 8.09129 8.62081 7.91846 8.6868C7.74563 8.75279 7.56091 8.78193 7.37615 8.77235ZM18.0072 18.0078H15.3747V13.6207C15.3747 12.5745 15.0035 11.8546 14.0697 11.8546C13.7797 11.8571 13.4975 11.9492 13.2619 12.1184C13.0262 12.2876 12.8487 12.5255 12.7535 12.7995C12.6794 13.0047 12.6488 13.223 12.6635 13.4407V18.0078H10.0761V9.98724H12.6635V11.1121C12.8936 10.6896 13.236 10.3388 13.6529 10.0986C14.0698 9.85837 14.545 9.73809 15.026 9.75101C16.7247 9.75101 18.0072 10.8759 18.0072 13.2719V18.0078Z" fill="black"/>
</svg>
